<?xml version="1.0" encoding="utf-8"?>
<!-- Generator: Adobe Illustrator 27.3.1, SVG Export Plug-In . SVG Version: 6.00 Build 0)  -->
<svg version="1.1" id="Layer_1" xmlns="http://www.w3.org/2000/svg" xmlns:xlink="http://www.w3.org/1999/xlink" x="0px" y="0px"
	 viewBox="0 0 1400 768" style="enable-background:new 0 0 1400 768;" xml:space="preserve">
<style type="text/css">
	.st0{fill:url(#SVGID_1_);}
	.st1{fill:url(#SVGID_00000140012028943894657310000002741799540832522676_);}
	.st2{fill:url(#SVGID_00000052786493544091319200000015430886009637938615_);}
	.st3{fill:url(#SVGID_00000165943213166834486630000017195313454013338031_);}
	.st4{fill:url(#SVGID_00000030480943485262681350000006747404449973321143_);}
	.st5{fill:url(#SVGID_00000082356621553922692540000005937702423435373231_);}
	.st6{fill:url(#SVGID_00000093167362024479732240000005854334323661318072_);}
	.st7{fill:url(#SVGID_00000013890659353320956960000016211225090848945810_);}
	.st8{fill:url(#SVGID_00000113349083525753952650000012301610490276630960_);}
	.st9{fill:url(#SVGID_00000062892459041567511420000017303804332648470943_);}
	.st10{fill:url(#SVGID_00000028298433439920867480000000785849563715309492_);}
	.st11{fill:url(#SVGID_00000045607343430698444480000015150735832708616326_);}
	.st12{fill:url(#SVGID_00000078029138079707243150000011929086092552928919_);}
	.st13{fill:url(#SVGID_00000125597028615523763870000014616655521140327045_);}
	.st14{fill:url(#SVGID_00000172402174660187113740000013927625710430606266_);}
	.st15{fill:url(#SVGID_00000057836837826541699130000011363192073060031919_);}
	.st16{fill:url(#SVGID_00000150811383722938384810000003272909182959589548_);}
	.st17{fill:url(#SVGID_00000051384106902866148480000010897955255696326530_);}
	.st18{fill:url(#SVGID_00000147215390094711295270000009503674494641580955_);}
	.st19{fill:url(#SVGID_00000113352966826037827620000015769714476310436773_);}
	.st20{fill:url(#SVGID_00000106111785555178683330000005771138656481553555_);}
	.st21{fill:url(#SVGID_00000000902351834205226060000003562127977833107629_);}
	.st22{fill:url(#SVGID_00000078016192024643007380000003036970967136556695_);}
	.st23{fill:url(#SVGID_00000140719564151953932040000009470511616918686888_);}
	.st24{fill:url(#SVGID_00000004519770133832355980000015251850779986602397_);}
	.st25{fill:url(#SVGID_00000145026407386260817740000006685008991060346529_);}
	.st26{fill:url(#SVGID_00000132795928197142699030000014560866782854475449_);}
	.st27{fill:url(#SVGID_00000011018801028290948280000000131200010164830860_);}
	.st28{fill:url(#SVGID_00000096055405122574222700000007685465394701107641_);}
	.st29{fill:url(#SVGID_00000110437597763857429350000009981060995716260765_);}
	.st30{fill:url(#SVGID_00000053517857195195144500000000175367338399313302_);}
	.st31{fill:url(#SVGID_00000154406146152478355450000005002126363589953421_);}
	.st32{fill:url(#SVGID_00000065057781829229947780000009470490447472854194_);}
	.st33{fill:url(#SVGID_00000034775062465404711800000003541086817099603372_);}
	.st34{fill:url(#SVGID_00000055679230681498387320000003544176007006788532_);}
	.st35{fill:url(#SVGID_00000014633323877219454240000009318734789227149226_);}
	.st36{fill:url(#SVGID_00000020386764588050774330000006766038353759575681_);}
	.st37{fill:url(#SVGID_00000085244984974214530080000006858842020205973157_);}
	.st38{fill:url(#SVGID_00000031913280749198691280000015436932820134386343_);}
	.st39{fill:url(#SVGID_00000098190928207408038030000015518848036310412447_);}
	.st40{fill:url(#SVGID_00000111881654552806134630000018326398679595012503_);}
	.st41{fill:url(#SVGID_00000068660697642878274010000002592847660403423629_);}
	.st42{fill:url(#SVGID_00000018956683228958657040000002103213968694689962_);}
	.st43{fill:url(#SVGID_00000018233404448662684940000005918072560992784273_);}
</style>
<radialGradient id="SVGID_1_" cx="665.1479" cy="341.9375" r="704.1278" gradientUnits="userSpaceOnUse">
	<stop  offset="5.581818e-04" style="stop-color:#343434"/>
	<stop  offset="1" style="stop-color:#101010"/>
</radialGradient>
<rect x="-21.15" y="-11.55" class="st0" width="1421.15" height="779.55"/>
<g>
	<g>
		
			<linearGradient id="SVGID_00000132085101915863672950000002772481151989257387_" gradientUnits="userSpaceOnUse" x1="544.1267" y1="353.7915" x2="1106.4561" y2="353.7915">
			<stop  offset="0.1838" style="stop-color:#AA8246"/>
			<stop  offset="0.4564" style="stop-color:#C5AA66"/>
			<stop  offset="1" style="stop-color:#9C6E36"/>
		</linearGradient>
		<path style="fill:url(#SVGID_00000132085101915863672950000002772481151989257387_);" d="M582.44,327.4v12.8h-30.81
			c-3.47,0-5.21,0.72-5.21,2.24v2.89c0,1.52,1.59,2.24,4.85,2.24h17.21c11.06,0,16.49,4.12,16.49,12.37v6.8
			c0,8.97-5.93,13.45-18.01,13.45h-34.71v-12.8h32.9c3.47,0,5.21-0.72,5.21-2.24v-3.83c0-1.52-1.66-2.24-4.92-2.24h-17.21
			c-10.99,0-16.49-4.12-16.49-12.37v-5.86c0-8.97,6-13.45,18.01-13.45H582.44z"/>
		
			<linearGradient id="SVGID_00000132077999502697851310000001956476213539033783_" gradientUnits="userSpaceOnUse" x1="544.1267" y1="360.1916" x2="1106.4561" y2="360.1916">
			<stop  offset="0.1838" style="stop-color:#AA8246"/>
			<stop  offset="0.4564" style="stop-color:#C5AA66"/>
			<stop  offset="1" style="stop-color:#9C6E36"/>
		</linearGradient>
		<path style="fill:url(#SVGID_00000132077999502697851310000001956476213539033783_);" d="M624.67,340.2
			c11.21,0,16.85,4.05,16.85,12.08v15.84c0,8.03-5.64,12.08-16.85,12.08h-18.44c-11.28,0-16.92-4.05-16.92-12.08v-15.84
			c0-8.03,5.64-12.08,16.92-12.08H624.67z M603.62,365.58c0,1.52,1.95,2.31,5.86,2.31h11.93c3.83,0,5.79-0.8,5.79-2.31V354.8
			c0-1.52-1.95-2.31-5.79-2.31h-11.93c-3.91,0-5.86,0.8-5.86,2.31V365.58z"/>
		
			<linearGradient id="SVGID_00000158000671179935744560000016799977940634852744_" gradientUnits="userSpaceOnUse" x1="544.1267" y1="360.1916" x2="1106.4561" y2="360.1916">
			<stop  offset="0.1838" style="stop-color:#AA8246"/>
			<stop  offset="0.4564" style="stop-color:#C5AA66"/>
			<stop  offset="1" style="stop-color:#9C6E36"/>
		</linearGradient>
		<path style="fill:url(#SVGID_00000158000671179935744560000016799977940634852744_);" d="M661.62,340.2v25.38
			c0,1.52,1.95,2.31,5.86,2.31h11.28c3.83,0,5.79-0.8,5.79-2.31V340.2h14.17v27.91c0,8.03-5.64,12.08-16.92,12.08h-17.57
			c-11.28,0-16.92-4.05-16.92-12.08V340.2H661.62z"/>
		
			<linearGradient id="SVGID_00000088851270383798431030000014593189871814971526_" gradientUnits="userSpaceOnUse" x1="544.1267" y1="360.1916" x2="1106.4561" y2="360.1916">
			<stop  offset="0.1838" style="stop-color:#AA8246"/>
			<stop  offset="0.4564" style="stop-color:#C5AA66"/>
			<stop  offset="1" style="stop-color:#9C6E36"/>
		</linearGradient>
		<path style="fill:url(#SVGID_00000088851270383798431030000014593189871814971526_);" d="M740.08,340.2
			c11.21,0,16.85,4.05,16.85,12.08v27.91h-14.32V354.8c0-1.52-1.95-2.31-5.79-2.31h-17.28v27.7h-14.32V340.2H740.08z"/>
		
			<linearGradient id="SVGID_00000038392622263172345500000007993490310898221744_" gradientUnits="userSpaceOnUse" x1="544.1267" y1="353.0321" x2="1106.4561" y2="353.0321">
			<stop  offset="0.1838" style="stop-color:#AA8246"/>
			<stop  offset="0.4564" style="stop-color:#C5AA66"/>
			<stop  offset="1" style="stop-color:#9C6E36"/>
		</linearGradient>
		<path style="fill:url(#SVGID_00000038392622263172345500000007993490310898221744_);" d="M814.42,325.88v42.23
			c0,8.03-5.64,12.08-16.85,12.08h-17.93c-11.28,0-16.92-4.05-16.92-12.08v-15.84c0-8.03,5.64-12.08,16.92-12.08h17.57v12.29h-14.32
			c-3.91,0-5.86,0.8-5.86,2.31v10.78c0,1.52,1.95,2.31,5.86,2.31h11.43c3.83,0,5.79-0.8,5.79-2.31v-39.7H814.42z"/>
		
			<linearGradient id="SVGID_00000159468975314787523080000000436712904972190379_" gradientUnits="userSpaceOnUse" x1="544.1267" y1="353.7915" x2="1106.4561" y2="353.7915">
			<stop  offset="0.1838" style="stop-color:#AA8246"/>
			<stop  offset="0.4564" style="stop-color:#C5AA66"/>
			<stop  offset="1" style="stop-color:#9C6E36"/>
		</linearGradient>
		<path style="fill:url(#SVGID_00000159468975314787523080000000436712904972190379_);" d="M868.51,327.4v12.8h-28.06
			c-3.47,0-5.21,0.58-5.21,1.66v23.86c0,1.08,1.74,1.66,5.21,1.66h28.06v12.8h-31.39c-11.28,0-16.92-3.98-16.92-12V339.4
			c0-8.03,5.64-12,16.92-12H868.51z"/>
		
			<linearGradient id="SVGID_00000098940460850151748270000006607129575146327194_" gradientUnits="userSpaceOnUse" x1="544.1267" y1="353.0321" x2="1106.4561" y2="353.0321">
			<stop  offset="0.1838" style="stop-color:#AA8246"/>
			<stop  offset="0.4564" style="stop-color:#C5AA66"/>
			<stop  offset="1" style="stop-color:#9C6E36"/>
		</linearGradient>
		<path style="fill:url(#SVGID_00000098940460850151748270000006607129575146327194_);" d="M888.03,325.88v14.32h20.54
			c11.21,0,16.85,4.05,16.85,12.08v27.91H911.1V354.8c0-1.52-1.95-2.31-5.79-2.31h-17.28v27.7h-14.32v-54.31H888.03z"/>
		
			<linearGradient id="SVGID_00000174563255876534557710000008632612942016106426_" gradientUnits="userSpaceOnUse" x1="544.1267" y1="360.1916" x2="1106.4561" y2="360.1916">
			<stop  offset="0.1838" style="stop-color:#AA8246"/>
			<stop  offset="0.4564" style="stop-color:#C5AA66"/>
			<stop  offset="1" style="stop-color:#9C6E36"/>
		</linearGradient>
		<path style="fill:url(#SVGID_00000174563255876534557710000008632612942016106426_);" d="M966.56,340.2
			c11.21,0,16.85,4.05,16.85,12.08v15.84c0,8.03-5.64,12.08-16.85,12.08h-18.44c-11.28,0-16.92-4.05-16.92-12.08v-15.84
			c0-8.03,5.64-12.08,16.92-12.08H966.56z M945.52,365.58c0,1.52,1.95,2.31,5.86,2.31h11.93c3.83,0,5.79-0.8,5.79-2.31V354.8
			c0-1.52-1.95-2.31-5.79-2.31h-11.93c-3.91,0-5.86,0.8-5.86,2.31V365.58z"/>
		
			<linearGradient id="SVGID_00000087411183672485711750000014770710095563904917_" gradientUnits="userSpaceOnUse" x1="544.1267" y1="353.0321" x2="1106.4561" y2="353.0321">
			<stop  offset="0.1838" style="stop-color:#AA8246"/>
			<stop  offset="0.4564" style="stop-color:#C5AA66"/>
			<stop  offset="1" style="stop-color:#9C6E36"/>
		</linearGradient>
		<path style="fill:url(#SVGID_00000087411183672485711750000014770710095563904917_);" d="M1003.94,325.88v10.85h-14.32v-10.85
			H1003.94z M1003.94,341.14v39.05h-14.32v-39.05H1003.94z"/>
		
			<linearGradient id="SVGID_00000033350394979513080260000011886037748645907647_" gradientUnits="userSpaceOnUse" x1="544.1267" y1="360.1916" x2="1106.4561" y2="360.1916">
			<stop  offset="0.1838" style="stop-color:#AA8246"/>
			<stop  offset="0.4564" style="stop-color:#C5AA66"/>
			<stop  offset="1" style="stop-color:#9C6E36"/>
		</linearGradient>
		<path style="fill:url(#SVGID_00000033350394979513080260000011886037748645907647_);" d="M1051.24,340.2v12.29h-20.9
			c-3.91,0-5.86,0.8-5.86,2.31v10.78c0,1.52,1.95,2.31,5.86,2.31h20.9v12.29h-24.15c-11.28,0-16.92-4.05-16.92-12.08v-15.84
			c0-8.03,5.64-12.08,16.92-12.08H1051.24z"/>
		
			<linearGradient id="SVGID_00000068664691400596125390000007124421185902608803_" gradientUnits="userSpaceOnUse" x1="544.1267" y1="360.1916" x2="1106.4561" y2="360.1916">
			<stop  offset="0.1838" style="stop-color:#AA8246"/>
			<stop  offset="0.4564" style="stop-color:#C5AA66"/>
			<stop  offset="1" style="stop-color:#9C6E36"/>
		</linearGradient>
		<path style="fill:url(#SVGID_00000068664691400596125390000007124421185902608803_);" d="M1091.3,340.2
			c9.98,0,15.04,3.62,15.04,10.78v5.06c0,5.57-4.41,8.39-13.31,8.39h-20.1v-9.47h15.62c2.68,0,4.05-0.51,4.05-1.45v-1.52
			c0-0.94-1.45-1.45-4.27-1.45h-12.73c-3.69,0-5.57,0.72-5.57,2.17v14.03c0,0.94,1.66,1.45,4.85,1.45h29.72v12h-31.75
			c-11.28,0-16.92-4.05-16.92-12.08v-15.84c0-8.03,5.64-12.08,16.92-12.08H1091.3z"/>
	</g>
</g>
<g>
	
		<linearGradient id="SVGID_00000183241923118899346600000004048863188324922262_" gradientUnits="userSpaceOnUse" x1="539.5309" y1="411.6595" x2="1089.7623" y2="411.6595">
		<stop  offset="0.1838" style="stop-color:#AA8246"/>
		<stop  offset="0.4564" style="stop-color:#C5AA66"/>
		<stop  offset="1" style="stop-color:#9C6E36"/>
	</linearGradient>
	<path style="fill:url(#SVGID_00000183241923118899346600000004048863188324922262_);" d="M565.31,389.27
		c11.29,0,16.93,3.99,16.93,12.02v20.73c0,8.04-5.64,12.02-16.93,12.02h-16.26v-10.86h14.78c3.8,0,5.64-0.67,5.64-2.02v-19.02
		c0-1.35-1.84-2.02-5.64-2.02h-17.18v33.92h-12.76v-44.78H565.31z"/>
	
		<linearGradient id="SVGID_00000095327015378608100200000000383852396880134055_" gradientUnits="userSpaceOnUse" x1="539.5309" y1="411.6595" x2="1089.7623" y2="411.6595">
		<stop  offset="0.1838" style="stop-color:#AA8246"/>
		<stop  offset="0.4564" style="stop-color:#C5AA66"/>
		<stop  offset="1" style="stop-color:#9C6E36"/>
	</linearGradient>
	<path style="fill:url(#SVGID_00000095327015378608100200000000383852396880134055_);" d="M631.12,389.27v34.6
		c0,6.81-4.78,10.18-14.35,10.18h-18.1v-10.86h15.34c2.88,0,4.36-0.49,4.36-1.41v-32.51H631.12z"/>
	
		<linearGradient id="SVGID_00000113319381724097341380000008729718046803519160_" gradientUnits="userSpaceOnUse" x1="539.5309" y1="411.6595" x2="1089.7623" y2="411.6595">
		<stop  offset="0.1838" style="stop-color:#AA8246"/>
		<stop  offset="0.4564" style="stop-color:#C5AA66"/>
		<stop  offset="1" style="stop-color:#9C6E36"/>
	</linearGradient>
	<path style="fill:url(#SVGID_00000113319381724097341380000008729718046803519160_);" d="M724.35,389.27v10.86h-26.13
		c-2.94,0-4.42,0.61-4.42,1.9v2.45c0,1.29,1.35,1.9,4.11,1.9h14.6c9.39,0,13.99,3.5,13.99,10.49v5.77c0,7.61-5.03,11.41-15.27,11.41
		h-29.44v-10.86h27.91c2.95,0,4.42-0.61,4.42-1.9v-3.25c0-1.29-1.41-1.9-4.17-1.9h-14.6c-9.32,0-13.99-3.5-13.99-10.49v-4.97
		c0-7.61,5.09-11.41,15.27-11.41H724.35z"/>
	
		<linearGradient id="SVGID_00000129888115289576958820000016220127472584889491_" gradientUnits="userSpaceOnUse" x1="539.5309" y1="417.0879" x2="1089.7623" y2="417.0879">
		<stop  offset="0.1838" style="stop-color:#AA8246"/>
		<stop  offset="0.4564" style="stop-color:#C5AA66"/>
		<stop  offset="1" style="stop-color:#9C6E36"/>
	</linearGradient>
	<path style="fill:url(#SVGID_00000129888115289576958820000016220127472584889491_);" d="M775.57,400.13
		c8.46,0,12.76,3.07,12.76,9.14v4.29c0,4.72-3.74,7.12-11.29,7.12h-17.05v-8.04h13.25c2.27,0,3.44-0.43,3.44-1.23v-1.29
		c0-0.8-1.23-1.23-3.62-1.23h-10.8c-3.13,0-4.72,0.61-4.72,1.84v11.9c0,0.8,1.41,1.23,4.11,1.23h25.21v10.18h-26.93
		c-9.57,0-14.35-3.44-14.35-10.24v-13.43c0-6.81,4.78-10.24,14.35-10.24H775.57z"/>
	
		<linearGradient id="SVGID_00000046320638814799885810000018026450071952987271_" gradientUnits="userSpaceOnUse" x1="539.5309" y1="417.0879" x2="1089.7623" y2="417.0879">
		<stop  offset="0.1838" style="stop-color:#AA8246"/>
		<stop  offset="0.4564" style="stop-color:#C5AA66"/>
		<stop  offset="1" style="stop-color:#9C6E36"/>
	</linearGradient>
	<path style="fill:url(#SVGID_00000046320638814799885810000018026450071952987271_);" d="M835.43,400.13v10.43h-9.69
		c-3.31,0-4.97,0.67-4.97,1.96v21.53h-12.15v-23.68c0-6.81,4.78-10.24,14.35-10.24H835.43z"/>
	
		<linearGradient id="SVGID_00000083793762129592357690000004061980217415826591_" gradientUnits="userSpaceOnUse" x1="539.5309" y1="417.0879" x2="1089.7623" y2="417.0879">
		<stop  offset="0.1838" style="stop-color:#AA8246"/>
		<stop  offset="0.4564" style="stop-color:#C5AA66"/>
		<stop  offset="1" style="stop-color:#9C6E36"/>
	</linearGradient>
	<path style="fill:url(#SVGID_00000083793762129592357690000004061980217415826591_);" d="M864.13,400.13l11.72,22.27l11.84-22.27
		h13.19l-18.53,33.92h-13.13l-19.02-33.92H864.13z"/>
	
		<linearGradient id="SVGID_00000153686798085453648370000013857118873733322680_" gradientUnits="userSpaceOnUse" x1="539.5309" y1="411.0157" x2="1089.7623" y2="411.0157">
		<stop  offset="0.1838" style="stop-color:#AA8246"/>
		<stop  offset="0.4564" style="stop-color:#C5AA66"/>
		<stop  offset="1" style="stop-color:#9C6E36"/>
	</linearGradient>
	<path style="fill:url(#SVGID_00000153686798085453648370000013857118873733322680_);" d="M929.64,387.98v9.2h-12.15v-9.2H929.64z
		 M929.64,400.92v33.12h-12.15v-33.12H929.64z"/>
	
		<linearGradient id="SVGID_00000065782822277544906540000009235383082560477312_" gradientUnits="userSpaceOnUse" x1="539.5309" y1="417.0879" x2="1089.7623" y2="417.0879">
		<stop  offset="0.1838" style="stop-color:#AA8246"/>
		<stop  offset="0.4564" style="stop-color:#C5AA66"/>
		<stop  offset="1" style="stop-color:#9C6E36"/>
	</linearGradient>
	<path style="fill:url(#SVGID_00000065782822277544906540000009235383082560477312_);" d="M985.15,400.13v10.43h-17.73
		c-3.31,0-4.97,0.67-4.97,1.96v9.14c0,1.29,1.66,1.96,4.97,1.96h17.73v10.43h-20.49c-9.57,0-14.35-3.44-14.35-10.24v-13.43
		c0-6.81,4.78-10.24,14.35-10.24H985.15z"/>
	
		<linearGradient id="SVGID_00000160155177219537871770000006053019428668432264_" gradientUnits="userSpaceOnUse" x1="539.5309" y1="417.0879" x2="1089.7623" y2="417.0879">
		<stop  offset="0.1838" style="stop-color:#AA8246"/>
		<stop  offset="0.4564" style="stop-color:#C5AA66"/>
		<stop  offset="1" style="stop-color:#9C6E36"/>
	</linearGradient>
	<path style="fill:url(#SVGID_00000160155177219537871770000006053019428668432264_);" d="M1034.52,400.13
		c8.46,0,12.76,3.07,12.76,9.14v4.29c0,4.72-3.74,7.12-11.29,7.12h-17.05v-8.04h13.25c2.27,0,3.44-0.43,3.44-1.23v-1.29
		c0-0.8-1.23-1.23-3.62-1.23h-10.8c-3.13,0-4.72,0.61-4.72,1.84v11.9c0,0.8,1.41,1.23,4.11,1.23h25.21v10.18h-26.93
		c-9.57,0-14.35-3.44-14.35-10.24v-13.43c0-6.81,4.78-10.24,14.35-10.24H1034.52z"/>
	
		<linearGradient id="SVGID_00000132063347031850868840000015182655656267825307_" gradientUnits="userSpaceOnUse" x1="539.5309" y1="417.0879" x2="1089.7623" y2="417.0879">
		<stop  offset="0.1838" style="stop-color:#AA8246"/>
		<stop  offset="0.4564" style="stop-color:#C5AA66"/>
		<stop  offset="1" style="stop-color:#9C6E36"/>
	</linearGradient>
	<path style="fill:url(#SVGID_00000132063347031850868840000015182655656267825307_);" d="M1104.14,400.13v8.77h-23
		c-2.33,0-3.5,0.49-3.5,1.41v1.04c0,0.98,1.1,1.47,3.37,1.47h13.68c7.61,0,11.41,2.64,11.41,7.97v4.6c0,5.77-3.86,8.65-11.72,8.65
		h-28.03v-8.77h24.41c2.45,0,3.68-0.49,3.68-1.53v-1.53c0-0.98-1.17-1.47-3.37-1.47h-13.56c-7.73,0-11.59-2.64-11.59-7.97v-4.05
		c0-5.7,3.93-8.59,11.72-8.59H1104.14z"/>
</g>
<g>
	
		<linearGradient id="SVGID_00000019656676027786073090000007495043611533041340_" gradientUnits="userSpaceOnUse" x1="557.4033" y1="450.6157" x2="1068.0347" y2="450.6157">
		<stop  offset="0.1838" style="stop-color:#AA8246"/>
		<stop  offset="0.4564" style="stop-color:#C5AA66"/>
		<stop  offset="1" style="stop-color:#9C6E36"/>
	</linearGradient>
	<path style="fill:url(#SVGID_00000019656676027786073090000007495043611533041340_);" d="M559.21,440.56h17.23
		c1.56,0,2.7,0.3,3.43,0.9c0.73,0.6,1.09,1.6,1.09,3v4.48c0,1.4-0.36,2.4-1.09,3c-0.73,0.6-1.87,0.9-3.43,0.9h-12.63v7.84h-4.6
		V440.56z M563.81,444.03v5.34h10.53c0.73,0,1.26-0.1,1.6-0.29s0.51-0.63,0.51-1.31v-2.14c0-0.68-0.17-1.11-0.51-1.31
		c-0.34-0.19-0.87-0.29-1.6-0.29H563.81z"/>
	
		<linearGradient id="SVGID_00000062153355651931174390000008052632483328540833_" gradientUnits="userSpaceOnUse" x1="557.4033" y1="452.4489" x2="1068.0347" y2="452.4489">
		<stop  offset="0.1838" style="stop-color:#AA8246"/>
		<stop  offset="0.4564" style="stop-color:#C5AA66"/>
		<stop  offset="1" style="stop-color:#9C6E36"/>
	</linearGradient>
	<path style="fill:url(#SVGID_00000062153355651931174390000008052632483328540833_);" d="M590.71,457.64h11.46v-13.41h4.06v12.59
		c0,0.78-0.07,1.41-0.22,1.9c-0.14,0.49-0.38,0.88-0.72,1.17s-0.79,0.5-1.34,0.62c-0.56,0.12-1.24,0.17-2.05,0.17h-10.92
		c-0.83,0-1.52-0.06-2.07-0.17c-0.55-0.12-0.98-0.32-1.31-0.62c-0.33-0.29-0.56-0.69-0.7-1.17c-0.14-0.49-0.21-1.12-0.21-1.9v-12.59
		h4.02V457.64z"/>
	
		<linearGradient id="SVGID_00000005950728352587402320000000480298815779134133_" gradientUnits="userSpaceOnUse" x1="557.4033" y1="452.4289" x2="1068.0347" y2="452.4289">
		<stop  offset="0.1838" style="stop-color:#AA8246"/>
		<stop  offset="0.4564" style="stop-color:#C5AA66"/>
		<stop  offset="1" style="stop-color:#9C6E36"/>
	</linearGradient>
	<path style="fill:url(#SVGID_00000005950728352587402320000000480298815779134133_);" d="M623.39,460.68h-4.02v-13.53h-7.95v-2.96
		h19.96v2.96h-7.99V460.68z"/>
	
		<linearGradient id="SVGID_00000060753062525512954040000007483533034941795728_" gradientUnits="userSpaceOnUse" x1="557.4033" y1="452.4289" x2="1068.0347" y2="452.4289">
		<stop  offset="0.1838" style="stop-color:#AA8246"/>
		<stop  offset="0.4564" style="stop-color:#C5AA66"/>
		<stop  offset="1" style="stop-color:#9C6E36"/>
	</linearGradient>
	<path style="fill:url(#SVGID_00000060753062525512954040000007483533034941795728_);" d="M646.4,460.68h-4.02v-13.53h-7.95v-2.96
		h19.96v2.96h-7.99V460.68z"/>
	
		<linearGradient id="SVGID_00000127737453812730177670000006912865147584320147_" gradientUnits="userSpaceOnUse" x1="557.4033" y1="452.4289" x2="1068.0347" y2="452.4289">
		<stop  offset="0.1838" style="stop-color:#AA8246"/>
		<stop  offset="0.4564" style="stop-color:#C5AA66"/>
		<stop  offset="1" style="stop-color:#9C6E36"/>
	</linearGradient>
	<path style="fill:url(#SVGID_00000127737453812730177670000006912865147584320147_);" d="M659.58,444.18h4.02v16.49h-4.02V444.18z"
		/>
	
		<linearGradient id="SVGID_00000137089886983577438550000014169827653593519509_" gradientUnits="userSpaceOnUse" x1="557.4033" y1="452.4289" x2="1068.0347" y2="452.4289">
		<stop  offset="0.1838" style="stop-color:#AA8246"/>
		<stop  offset="0.4564" style="stop-color:#C5AA66"/>
		<stop  offset="1" style="stop-color:#9C6E36"/>
	</linearGradient>
	<path style="fill:url(#SVGID_00000137089886983577438550000014169827653593519509_);" d="M670.92,444.18h2.77l14,10.96v-10.96h3.63
		v16.49h-2.78l-13.99-11.11v11.11h-3.63V444.18z"/>
	
		<linearGradient id="SVGID_00000153684111803211693510000001078162682239981449_" gradientUnits="userSpaceOnUse" x1="557.4033" y1="452.4289" x2="1068.0347" y2="452.4289">
		<stop  offset="0.1838" style="stop-color:#AA8246"/>
		<stop  offset="0.4564" style="stop-color:#C5AA66"/>
		<stop  offset="1" style="stop-color:#9C6E36"/>
	</linearGradient>
	<path style="fill:url(#SVGID_00000153684111803211693510000001078162682239981449_);" d="M702.31,447.22v10.29h12.55v-3.51h-6.55
		v-2.93h10.49v5.69c0,0.78-0.07,1.42-0.21,1.91c-0.14,0.49-0.38,0.89-0.7,1.19c-0.33,0.3-0.77,0.51-1.33,0.62
		c-0.56,0.12-1.24,0.18-2.05,0.18h-11.93c-0.83,0-1.52-0.06-2.07-0.18c-0.55-0.12-0.98-0.32-1.31-0.62c-0.33-0.3-0.56-0.69-0.7-1.19
		c-0.14-0.49-0.21-1.13-0.21-1.91v-8.69c0-0.78,0.07-1.42,0.21-1.93c0.14-0.51,0.38-0.9,0.72-1.19c0.34-0.29,0.78-0.49,1.33-0.6
		c0.55-0.12,1.22-0.18,2.03-0.18h11.93c1.56,0,2.66,0.25,3.31,0.74c0.65,0.49,0.97,1.48,0.97,2.96v0.43l-3.94,0.66v-1.75H702.31z"/>
	
		<linearGradient id="SVGID_00000107549780302549859690000011346307600675070345_" gradientUnits="userSpaceOnUse" x1="557.4033" y1="452.4289" x2="1068.0347" y2="452.4289">
		<stop  offset="0.1838" style="stop-color:#AA8246"/>
		<stop  offset="0.4564" style="stop-color:#C5AA66"/>
		<stop  offset="1" style="stop-color:#9C6E36"/>
	</linearGradient>
	<path style="fill:url(#SVGID_00000107549780302549859690000011346307600675070345_);" d="M750.59,460.68h-4.02v-13.53h-7.96v-2.96
		h19.96v2.96h-7.99V460.68z"/>
	
		<linearGradient id="SVGID_00000040570804482024930130000000208766462427239305_" gradientUnits="userSpaceOnUse" x1="557.4033" y1="452.4289" x2="1068.0347" y2="452.4289">
		<stop  offset="0.1838" style="stop-color:#AA8246"/>
		<stop  offset="0.4564" style="stop-color:#C5AA66"/>
		<stop  offset="1" style="stop-color:#9C6E36"/>
	</linearGradient>
	<path style="fill:url(#SVGID_00000040570804482024930130000000208766462427239305_);" d="M763.77,444.18h4.06v6.28h12.56v-6.28
		h4.02v16.49h-4.02v-6.94h-12.56v6.94h-4.06V444.18z"/>
	
		<linearGradient id="SVGID_00000080924753256455550290000016207003674359290782_" gradientUnits="userSpaceOnUse" x1="557.4033" y1="452.4289" x2="1068.0347" y2="452.4289">
		<stop  offset="0.1838" style="stop-color:#AA8246"/>
		<stop  offset="0.4564" style="stop-color:#C5AA66"/>
		<stop  offset="1" style="stop-color:#9C6E36"/>
	</linearGradient>
	<path style="fill:url(#SVGID_00000080924753256455550290000016207003674359290782_);" d="M791.76,444.18h17.7v2.92h-13.65v3.59
		h7.96v2.85h-7.96v4.1h13.84v3.04h-17.9V444.18z"/>
	
		<linearGradient id="SVGID_00000096039723306942324220000017868418993408939657_" gradientUnits="userSpaceOnUse" x1="557.4033" y1="452.4289" x2="1068.0347" y2="452.4289">
		<stop  offset="0.1838" style="stop-color:#AA8246"/>
		<stop  offset="0.4564" style="stop-color:#C5AA66"/>
		<stop  offset="1" style="stop-color:#9C6E36"/>
	</linearGradient>
	<path style="fill:url(#SVGID_00000096039723306942324220000017868418993408939657_);" d="M837.85,444.18h3.86l9.94,16.49h-4.52
		l-2.07-3.63h-10.92l-2.07,3.63h-4.02L837.85,444.18z M843.43,454.01l-3.86-6.86l-3.71,6.86H843.43z"/>
	
		<linearGradient id="SVGID_00000065076735635737661610000013488718284242057658_" gradientUnits="userSpaceOnUse" x1="557.4033" y1="452.4289" x2="1068.0347" y2="452.4289">
		<stop  offset="0.1838" style="stop-color:#AA8246"/>
		<stop  offset="0.4564" style="stop-color:#C5AA66"/>
		<stop  offset="1" style="stop-color:#9C6E36"/>
	</linearGradient>
	<path style="fill:url(#SVGID_00000065076735635737661610000013488718284242057658_);" d="M855.75,444.18h14.86
		c1.32,0,2.3,0.24,2.92,0.72c0.62,0.48,0.93,1.31,0.93,2.48v3.9c0,1.14-0.31,1.96-0.93,2.44c-0.62,0.48-1.6,0.72-2.92,0.72h-2.26
		l7.84,6.24h-5.77l-6.9-6.24h-3.78v6.24h-3.98V444.18z M859.73,447.03v4.56h9.16c0.6,0,1.05-0.08,1.36-0.25
		c0.31-0.17,0.47-0.53,0.47-1.07v-1.91c0-0.55-0.15-0.9-0.47-1.07c-0.31-0.17-0.77-0.25-1.36-0.25H859.73z"/>
	
		<linearGradient id="SVGID_00000176738826487057975550000015125759731999342251_" gradientUnits="userSpaceOnUse" x1="557.4033" y1="452.4289" x2="1068.0347" y2="452.4289">
		<stop  offset="0.1838" style="stop-color:#AA8246"/>
		<stop  offset="0.4564" style="stop-color:#C5AA66"/>
		<stop  offset="1" style="stop-color:#9C6E36"/>
	</linearGradient>
	<path style="fill:url(#SVGID_00000176738826487057975550000015125759731999342251_);" d="M890.93,460.68h-4.02v-13.53h-7.96v-2.96
		h19.96v2.96h-7.99V460.68z"/>
	
		<linearGradient id="SVGID_00000170964178524437639880000006476282931690939042_" gradientUnits="userSpaceOnUse" x1="557.4033" y1="452.4289" x2="1068.0347" y2="452.4289">
		<stop  offset="0.1838" style="stop-color:#AA8246"/>
		<stop  offset="0.4564" style="stop-color:#C5AA66"/>
		<stop  offset="1" style="stop-color:#9C6E36"/>
	</linearGradient>
	<path style="fill:url(#SVGID_00000170964178524437639880000006476282931690939042_);" d="M919.19,444.18h4.02v16.49h-4.02V444.18z"
		/>
	
		<linearGradient id="SVGID_00000147914919777239569810000009338517638878472087_" gradientUnits="userSpaceOnUse" x1="557.4033" y1="452.4289" x2="1068.0347" y2="452.4289">
		<stop  offset="0.1838" style="stop-color:#AA8246"/>
		<stop  offset="0.4564" style="stop-color:#C5AA66"/>
		<stop  offset="1" style="stop-color:#9C6E36"/>
	</linearGradient>
	<path style="fill:url(#SVGID_00000147914919777239569810000009338517638878472087_);" d="M930.54,444.18h2.77l14,10.96v-10.96h3.63
		v16.49h-2.78l-13.99-11.11v11.11h-3.63V444.18z"/>
	
		<linearGradient id="SVGID_00000161616049937365346100000009932496650985106360_" gradientUnits="userSpaceOnUse" x1="557.4033" y1="452.4289" x2="1068.0347" y2="452.4289">
		<stop  offset="0.1838" style="stop-color:#AA8246"/>
		<stop  offset="0.4564" style="stop-color:#C5AA66"/>
		<stop  offset="1" style="stop-color:#9C6E36"/>
	</linearGradient>
	<path style="fill:url(#SVGID_00000161616049937365346100000009932496650985106360_);" d="M973.4,444.18h14.86
		c1.32,0,2.3,0.24,2.92,0.72c0.62,0.48,0.93,1.31,0.93,2.48v3.67c0,1.17-0.31,2-0.93,2.48c-0.63,0.48-1.6,0.72-2.92,0.72h-10.88
		v6.43h-3.98V444.18z M977.37,447.03v4.37h9.16c0.6,0,1.05-0.08,1.37-0.25c0.31-0.17,0.47-0.53,0.47-1.07v-1.72
		c0-0.55-0.15-0.9-0.47-1.07c-0.31-0.17-0.77-0.25-1.37-0.25H977.37z"/>
	
		<linearGradient id="SVGID_00000119801097332203977180000003475453661252133043_" gradientUnits="userSpaceOnUse" x1="557.4033" y1="452.4289" x2="1068.0347" y2="452.4289">
		<stop  offset="0.1838" style="stop-color:#AA8246"/>
		<stop  offset="0.4564" style="stop-color:#C5AA66"/>
		<stop  offset="1" style="stop-color:#9C6E36"/>
	</linearGradient>
	<path style="fill:url(#SVGID_00000119801097332203977180000003475453661252133043_);" d="M1005.18,444.18h3.86l9.94,16.49h-4.52
		l-2.07-3.63h-10.92l-2.07,3.63h-4.02L1005.18,444.18z M1010.75,454.01l-3.86-6.86l-3.71,6.86H1010.75z"/>
	
		<linearGradient id="SVGID_00000001656354758858678510000011237625452662749850_" gradientUnits="userSpaceOnUse" x1="557.4033" y1="452.4289" x2="1068.0347" y2="452.4289">
		<stop  offset="0.1838" style="stop-color:#AA8246"/>
		<stop  offset="0.4564" style="stop-color:#C5AA66"/>
		<stop  offset="1" style="stop-color:#9C6E36"/>
	</linearGradient>
	<path style="fill:url(#SVGID_00000001656354758858678510000011237625452662749850_);" d="M1023.07,444.18h14.86
		c1.33,0,2.3,0.24,2.93,0.72c0.62,0.48,0.93,1.31,0.93,2.48v3.9c0,1.14-0.31,1.96-0.93,2.44c-0.62,0.48-1.6,0.72-2.93,0.72h-2.26
		l7.84,6.24h-5.77l-6.9-6.24h-3.78v6.24h-3.98V444.18z M1027.05,447.03v4.56h9.16c0.6,0,1.05-0.08,1.36-0.25
		c0.31-0.17,0.47-0.53,0.47-1.07v-1.91c0-0.55-0.16-0.9-0.47-1.07c-0.31-0.17-0.77-0.25-1.36-0.25H1027.05z"/>
	
		<linearGradient id="SVGID_00000151505004817061280310000002127357660814054806_" gradientUnits="userSpaceOnUse" x1="557.4033" y1="452.4289" x2="1068.0347" y2="452.4289">
		<stop  offset="0.1838" style="stop-color:#AA8246"/>
		<stop  offset="0.4564" style="stop-color:#C5AA66"/>
		<stop  offset="1" style="stop-color:#9C6E36"/>
	</linearGradient>
	<path style="fill:url(#SVGID_00000151505004817061280310000002127357660814054806_);" d="M1058.25,460.68h-4.02v-13.53h-7.95v-2.96
		h19.96v2.96h-7.99V460.68z"/>
	
		<linearGradient id="SVGID_00000098917028517168736450000007752127867860159657_" gradientUnits="userSpaceOnUse" x1="557.4033" y1="452.4289" x2="1068.0347" y2="452.4289">
		<stop  offset="0.1838" style="stop-color:#AA8246"/>
		<stop  offset="0.4564" style="stop-color:#C5AA66"/>
		<stop  offset="1" style="stop-color:#9C6E36"/>
	</linearGradient>
	<path style="fill:url(#SVGID_00000098917028517168736450000007752127867860159657_);" d="M1077.67,453.27l-9.01-9.09h5.42
		l5.89,6.16l5.97-6.16h4.72l-8.97,9.01v7.49h-4.02V453.27z"/>
</g>
<linearGradient id="SVGID_00000003080211935869697000000011557060691382301568_" gradientUnits="userSpaceOnUse" x1="242.0415" y1="378.7859" x2="506.1952" y2="378.7859">
	<stop  offset="0.1838" style="stop-color:#AA8246"/>
	<stop  offset="0.4564" style="stop-color:#C5AA66"/>
	<stop  offset="1" style="stop-color:#9C6E36"/>
</linearGradient>
<path style="fill:url(#SVGID_00000003080211935869697000000011557060691382301568_);" d="M498.5,392.76v-5.64
	c-0.53-2.14-1.46-4.12-2.71-5.87c-2.55-30.02-15.93-56.99-36.24-76.97l3.09-3.09c-22.83-22.47-54.07-36.41-88.52-36.56
	c-34.45,0.16-65.69,14.1-88.52,36.56l3.09,3.09c-20.31,19.98-33.69,46.95-36.24,76.97c-1.25,1.74-2.18,3.73-2.71,5.87v5.64
	c-4.5,1.75-7.7,6.11-7.7,11.23v57.09c0,5.12,3.2,9.48,7.7,11.23v7.48c1.82,7.52,8.61,13.16,16.67,13.16h3.03
	c9.45,0,17.17-7.73,17.17-17.17v-11.34c-10.43-16.3-16.48-35.65-16.48-56.39c0-11.49,1.86-22.56,5.29-32.92
	c-1.87-0.7-3.88-1.11-5.99-1.11h-3.03c-2.2,0-4.31,0.44-6.25,1.2c3.68-25.66,15.81-48.63,33.47-65.99l3.09,3.09
	c19.98-19.62,47.29-31.79,77.39-31.95c30.11,0.16,57.42,12.33,77.39,31.95l3.09-3.09c17.66,17.36,29.79,40.33,33.47,65.99
	c-1.94-0.77-4.05-1.2-6.25-1.2h-3.03c-1.46,0-2.88,0.2-4.23,0.55c0.45,1.34,0.88,2.69,1.27,4.05l1.3,1.95l-0.37,1.46
	c2.16,8.47,3.26,17.21,3.26,26.01c0,21.98-6.8,42.41-18.4,59.29v8.45c0,9.45,7.73,17.17,17.17,17.17h3.03
	c8.06,0,14.85-5.64,16.67-13.16v-7.48c4.5-1.75,7.7-6.11,7.7-11.23v-57.09C506.2,398.87,503,394.5,498.5,392.76z"/>
<linearGradient id="SVGID_00000062905172057660851030000006885834396798271422_" gradientUnits="userSpaceOnUse" x1="276.9542" y1="406.6191" x2="470.4604" y2="406.6191">
	<stop  offset="0.1838" style="stop-color:#AA8246"/>
	<stop  offset="0.4564" style="stop-color:#C5AA66"/>
	<stop  offset="1" style="stop-color:#9C6E36"/>
</linearGradient>
<path style="fill:url(#SVGID_00000062905172057660851030000006885834396798271422_);" d="M466.94,380.68L466.94,380.68
	L466.94,380.68c-11.34-40.84-48.78-70.81-93.23-70.81c-53.43,0-96.75,43.32-96.75,96.75s43.32,96.75,96.75,96.75
	s96.75-43.32,96.75-96.75C470.46,397.63,469.23,388.94,466.94,380.68z M288.74,395.96v-8.01l38.64,13.63L288.74,395.96z
	 M340.22,395.96l-51.48-16.37c1.61-5.05,3.66-9.91,6.1-14.53l47.21,26.31C341.33,392.84,340.72,394.38,340.22,395.96z M299.25,357.6
	c7.06-10.7,16.35-19.79,27.23-26.6l29.02,45.56c-4.69,2.84-8.65,6.76-11.56,11.39L299.25,357.6z M406.57,412.53
	c0,0-10.11-20.99-30.32-30.32v5.01c9.61,1.25,17.04,9.45,17.04,19.4s-7.43,18.15-17.04,19.4v21.5c0,7.51-6.09,13.6-13.6,13.6
	c-7.51,0-13.6-6.09-13.6-13.6c0-7.51,6.09-13.6,13.6-13.6c2.55,0,4.92,0.71,6.96,1.93v-10.09c-8.84-1.89-15.47-9.74-15.47-19.14
	c0-9.4,6.63-17.25,15.47-19.14v-39.47c0,0,8.2,10.88,25.3,23.32C412.01,383.77,410.45,398.54,406.57,412.53z"/>
</svg>
