<svg xmlns="http://www.w3.org/2000/svg" viewBox="0 0 1600 785" preserveAspectRatio="xMidYMid" width="1600" height="785" xmlns:xlink="http://www.w3.org/1999/xlink" style="shape-rendering:auto;display:block;background-position-x:0%;background-position-y:0%;background-size:auto;background-origin:padding-box;background-clip:border-box;background:scroll rgb(153, 153, 153) none  repeat;width:1600px;height:785px;;animation:none"><g><linearGradient gradientUnits="objectBoundingBox" y2="0" y1="0" x2="0.5" x1="0" id="lg-0.7195107836932599"><stop offset="0" stop-color="#ffef00"></stop>

  
<stop offset="1" stop-color="#ff9500"></stop></linearGradient>
<path opacity="0.9" fill="url(#lg-0.7195107836932599)" d="M -761.985 785 Q -692.518 606.398 -646.382 426.896 T -310.886 103.846 T 211.66 -152.529 T 870.106 -317.131 T 1600 -373.849 T 2329.89 -317.131 T 2988.34 -152.529 T 3510.89 103.846 T 3846.38 426.896 T 3961.99 785" style="fill:url('#lg-0.7195107836932599');opacity:0.9;;animation:none"></path>
<path opacity="0.9" fill="url(#lg-0.7195107836932599)" d="M -525.787 785 Q -435.556 606.821 -397.586 428.285 T -28.4472 114.596 T 537.107 -118.233 T 1230.86 -242.119 T 1969.14 -242.119 T 2662.89 -118.233 T 3228.45 114.596 T 3597.59 428.285 T 3725.79 785" style="fill:url('#lg-0.7195107836932599');opacity:0.9;;animation:none"></path>
<path opacity="0.9" fill="url(#lg-0.7195107836932599)" d="M -289.588 785 Q -231.753 609.322 -145.752 430.222 T 263.859 129.456 T 876.886 -71.5095 T 1600 -142.079 T 2323.11 -71.5095 T 2936.14 129.456 T 3345.75 430.222 T 3489.59 785" style="fill:url('#lg-0.7195107836932599');opacity:0.9;;animation:none"></path>
<path opacity="0.9" fill="url(#lg-0.7195107836932599)" d="M -53.3897 785 Q 50.369 610.144 110.347 433.036 T 569.128 150.783 T 1232.09 -5.856 T 1967.91 -5.856 T 2630.87 150.783 T 3089.65 433.036 T 3253.39 785" style="fill:url('#lg-0.7195107836932599');opacity:0.9;;animation:none"></path>
<path opacity="0.9" fill="url(#lg-0.7195107836932599)" d="M 182.809 785 Q 321.521 614.085 372.676 437.345 T 891.404 182.844 T 1600 89.6906 T 2308.6 182.844 T 2827.32 437.345 T 3017.19 785" style="fill:url('#lg-0.7195107836932599');opacity:0.9;;animation:none"></path>
<path opacity="0.9" fill="url(#lg-0.7195107836932599)" d="M 419.007 785 Q 526.781 615.274 644.557 444.423 T 1235.05 233.935 T 1964.95 233.935 T 2555.44 444.423 T 2780.99 785" style="fill:url('#lg-0.7195107836932599');opacity:0.9;;animation:none"></path>
<path opacity="0.9" fill="url(#lg-0.7195107836932599)" d="M 655.206 785 Q 794.472 613.829 931.93 457.228 T 1600 321.46 T 2268.07 457.228 T 2544.79 785" style="fill:url('#lg-0.7195107836932599');opacity:0.9;;animation:none"></path>
<path opacity="0.9" fill="url(#lg-0.7195107836932599)" d="M 891.404 785 Q 1030.54 638.51 1245.7 483.922 T 1954.3 483.922 T 2308.6 785" style="fill:url('#lg-0.7195107836932599');opacity:0.9;;animation:none"></path>
<path opacity="0.9" fill="url(#lg-0.7195107836932599)" d="M 1127.6 785 Q 1312 656.634 1600 553.23 T 2072.4 785" style="fill:url('#lg-0.7195107836932599');opacity:0.9;;animation:none"></path>
<path opacity="0.9" fill="url(#lg-0.7195107836932599)" d="M 1363.8 785 Q 1600 702.1 1836.2 785" style="fill:url('#lg-0.7195107836932599');opacity:0.9;;animation:none"></path>
<g></g></g><!-- [ldio] generated by https://loading.io --></svg>